<svg xmlns="http://www.w3.org/2000/svg" viewBox="0 0 102.55 83.06"><defs><style>.cls-1{fill:#fff;stroke:#000;stroke-miterlimit:10;}</style></defs><g id="Layer_2" data-name="Layer 2"><g id="Layer_1-2" data-name="Layer 1"><path class="cls-1" d="M97.24,17a71.11,71.11,0,0,1-6.13,4.71S93.68,32.58,86.49,49s-22.65,29.24-39.12,32-25.15,1.1-31.84-.8S1.66,73.4,1.66,73.4s11.68.3,18.86-2.1a36.77,36.77,0,0,0,11.38-6,26.08,26.08,0,0,1-13.77-6c-6.09-5.39-6.39-9.38-6.39-9.38a33.83,33.83,0,0,0,6.29.7,14.77,14.77,0,0,0,3.59-.2S12.94,48.05,8.15,40.16s-3.6-10.88-3.6-10.88a15.73,15.73,0,0,0,5,2.5,8.46,8.46,0,0,0,5.08.3S6.45,27.58,5.85,18.2,8.35,4.43,8.35,4.43s5.59,10.18,19.76,16,22.75,5.39,22.75,5.39S46.47,9.62,63.24,2.64,87.19,8,87.19,8a59.89,59.89,0,0,0,7.73-2.8,15.3,15.3,0,0,0,4-2.92,18.83,18.83,0,0,1-3,6.29,45.78,45.78,0,0,1-5.23,5.54s3.29-.82,6.21-1.8,4.79-1.72,4.79-1.72A18.62,18.62,0,0,1,97.24,17Z"/></g></g></svg>