<?xml version="1.0" encoding="UTF-8" standalone="no"?>
<!DOCTYPE svg PUBLIC "-//W3C//DTD SVG 1.1//EN" "http://www.w3.org/Graphics/SVG/1.1/DTD/svg11.dtd">
<svg width="100%" height="100%" viewBox="0 0 2481 3508" version="1.1" xmlns="http://www.w3.org/2000/svg" xmlns:xlink="http://www.w3.org/1999/xlink" xml:space="preserve" xmlns:serif="http://www.serif.com/" style="fill-rule:evenodd;clip-rule:evenodd;stroke-linejoin:round;stroke-miterlimit:2;">
    <g>
        <g transform="matrix(0.576517,-0.39661,0.566776,0.823872,-335.545,324.457)">
            <path d="M721.632,1482.49L916.514,1893.14L526.751,1893.14L721.632,1482.49Z" style="fill:rgb(233,236,80);"/>
        </g>
        <g transform="matrix(0.870597,-0.614911,0.966764,1.36875,-1722.26,-531.515)">
            <path d="M721.632,1482.49L916.514,1893.14L526.751,1893.14L721.632,1482.49Z" style="fill:rgb(233,236,80);"/>
        </g>
        <g transform="matrix(-0.680872,-0.498978,0.591111,-0.80659,691.411,4257.63)">
            <path d="M1459.4,1726.1L1619.48,2136.74L1299.32,2136.74L1459.4,1726.1Z" style="fill:rgb(233,236,80);"/>
        </g>
        <g transform="matrix(-0.149007,0.859334,-1.70913,-0.29636,4459.18,1187.39)">
            <path d="M1466.36,1487.19C1466.36,1457.71 1418.75,1433.77 1360.11,1433.77L1099.33,1433.77C1040.68,1433.77 993.075,1457.71 993.075,1487.19L993.075,2166.84C993.075,2196.32 1040.68,2220.26 1099.33,2220.26L1360.11,2220.26C1418.75,2220.26 1466.36,2196.32 1466.36,2166.84L1466.36,1487.19Z" style="fill:rgb(233,236,80);"/>
        </g>
        <g transform="matrix(-0.056701,0.326998,-1.72583,-0.299256,4393.56,1716.08)">
            <path d="M1466.36,1453.9C1466.36,1442.8 1418.75,1433.77 1360.11,1433.77L1099.33,1433.77C1040.68,1433.77 993.075,1442.8 993.075,1453.9L993.075,2200.13C993.075,2211.24 1040.68,2220.26 1099.33,2220.26L1360.11,2220.26C1418.75,2220.26 1466.36,2211.24 1466.36,2200.13L1466.36,1453.9Z" style="fill:rgb(221,147,115);"/>
        </g>
        <g transform="matrix(-0.0452061,0.321147,-0.186806,-0.0262958,1902.11,1358.97)">
            <path d="M1466.36,1627.44C1466.36,1520.55 1415.88,1433.77 1353.71,1433.77L1105.73,1433.77C1043.55,1433.77 993.075,1520.55 993.075,1627.44L993.075,2026.6C993.075,2133.48 1043.55,2220.26 1105.73,2220.26L1353.71,2220.26C1415.88,2220.26 1466.36,2133.48 1466.36,2026.6L1466.36,1627.44Z" style="fill:rgb(132,132,132);"/>
        </g>
        <g transform="matrix(-0.0452061,0.321147,-0.186806,-0.0262958,1676.9,1319.05)">
            <path d="M1466.36,1627.44C1466.36,1520.55 1415.88,1433.77 1353.71,1433.77L1105.73,1433.77C1043.55,1433.77 993.075,1520.55 993.075,1627.44L993.075,2026.6C993.075,2133.48 1043.55,2220.26 1105.73,2220.26L1353.71,2220.26C1415.88,2220.26 1466.36,2133.48 1466.36,2026.6L1466.36,1627.44Z" style="fill:rgb(132,132,132);"/>
        </g>
        <g transform="matrix(-0.0452061,0.321147,-0.186806,-0.0262958,1454.53,1281.99)">
            <path d="M1466.36,1627.44C1466.36,1520.55 1415.88,1433.77 1353.71,1433.77L1105.73,1433.77C1043.55,1433.77 993.075,1520.55 993.075,1627.44L993.075,2026.6C993.075,2133.48 1043.55,2220.26 1105.73,2220.26L1353.71,2220.26C1415.88,2220.26 1466.36,2133.48 1466.36,2026.6L1466.36,1627.44Z" style="fill:rgb(132,132,132);"/>
        </g>
        <g transform="matrix(-0.0452061,0.321147,-0.186806,-0.0262958,1203.66,1230.68)">
            <path d="M1466.36,1627.44C1466.36,1520.55 1415.88,1433.77 1353.71,1433.77L1105.73,1433.77C1043.55,1433.77 993.075,1520.55 993.075,1627.44L993.075,2026.6C993.075,2133.48 1043.55,2220.26 1105.73,2220.26L1353.71,2220.26C1415.88,2220.26 1466.36,2133.48 1466.36,2026.6L1466.36,1627.44Z" style="fill:rgb(132,132,132);"/>
        </g>
    </g>
    <g transform="matrix(-0.0822299,0.065436,-0.266905,-0.335405,2391.96,2334.63)">
        <path d="M1466.36,1491.79C1466.36,1459.77 1360.32,1433.77 1229.72,1433.77C1099.11,1433.77 993.075,1459.77 993.075,1491.79L993.075,2162.24C993.075,2194.26 1099.11,2220.26 1229.72,2220.26C1360.32,2220.26 1466.36,2194.26 1466.36,2162.24L1466.36,1491.79Z" style="fill:rgb(66,66,66);"/>
    </g>
    <g transform="matrix(-0.0872873,-0.0585196,0.238694,-0.356034,1488.88,2525.49)">
        <path d="M1466.36,1491.79C1466.36,1459.77 1360.32,1433.77 1229.72,1433.77C1099.11,1433.77 993.075,1459.77 993.075,1491.79L993.075,2162.24C993.075,2194.26 1099.11,2220.26 1229.72,2220.26C1360.32,2220.26 1466.36,2194.26 1466.36,2162.24L1466.36,1491.79Z" style="fill:rgb(66,66,66);"/>
    </g>
</svg>
